<svg t="1636939523630" class="icon" viewBox="0 0 1024 1024" version="1.1" xmlns="http://www.w3.org/2000/svg" p-id="1729" width="200" height="200"><path d="M1016.32 494.08l-143.872-143.36c-9.728-9.728-26.112-9.728-35.84 0-9.728 9.728-9.728 26.112 0 35.84L936.96 486.4h-399.36V87.04l99.84 100.352c9.728 9.728 26.112 9.728 35.84 0 9.728-9.728 9.728-26.112 0-35.84l-143.36-143.872c-9.728-9.728-26.112-9.728-35.84 0l-143.36 143.872c-9.728 9.728-9.728 26.112 0 35.84 9.728 9.728 26.112 9.728 35.84 0L486.4 87.04v399.36H87.04l100.352-99.84c9.728-9.728 9.728-26.112 0-35.84-9.728-9.728-26.112-9.728-35.84 0l-143.872 143.36c-9.728 9.728-9.728 26.112 0 35.84l143.872 143.36c9.728 9.728 26.112 9.728 35.84 0 9.728-9.728 9.728-26.112 0-35.84L87.04 537.6h399.36v399.36l-99.84-100.352c-9.728-9.728-26.112-9.728-35.84 0-9.728 9.728-9.728 26.112 0 35.84l143.36 143.872c9.728 9.728 26.112 9.728 35.84 0l143.36-143.872c9.728-9.728 9.728-26.112 0-35.84-9.728-9.728-26.112-9.728-35.84 0L537.6 936.96v-399.36h399.36l-100.352 99.84c-9.728 9.728-9.728 26.112 0 35.84 9.728 9.728 26.112 9.728 35.84 0l143.872-143.36c10.24-9.728 10.24-26.112 0-35.84z" p-id="1730"></path></svg>